<mxfile host="app.diagrams.net" agent="Mozilla/5.0 (Windows NT 10.0; Win64; x64; rv:133.0) Gecko/20100101 Firefox/133.0" scale="1" border="0" version="25.0.3">
  <diagram name="Page-1" id="2YBvvXClWsGukQMizWep">
    <mxGraphModel dx="2607" dy="2456" grid="1" gridSize="10" guides="1" tooltips="1" connect="1" arrows="1" fold="1" page="1" pageScale="1" pageWidth="850" pageHeight="1100" math="0" shadow="0">
      <root>
        <mxCell id="0" />
        <mxCell id="1" parent="0" />
        <mxCell id="QDihuIbp6Lw-h8ZXW96g-6" value=":Object" style="shape=umlLifeline;perimeter=lifelinePerimeter;whiteSpace=wrap;html=1;container=1;dropTarget=0;collapsible=0;recursiveResize=0;outlineConnect=0;portConstraint=eastwest;newEdgeStyle={&quot;curved&quot;:0,&quot;rounded&quot;:0};" parent="1" vertex="1">
          <mxGeometry x="780" y="-10" width="100" height="1010" as="geometry" />
        </mxCell>
        <mxCell id="jShqwbApxvPrVttutkd5-10" value="" style="html=1;points=[[0,0,0,0,5],[0,1,0,0,-5],[1,0,0,0,5],[1,1,0,0,-5]];perimeter=orthogonalPerimeter;outlineConnect=0;targetShapes=umlLifeline;portConstraint=eastwest;newEdgeStyle={&quot;curved&quot;:0,&quot;rounded&quot;:0};" vertex="1" parent="QDihuIbp6Lw-h8ZXW96g-6">
          <mxGeometry x="45" y="411" width="10" height="229" as="geometry" />
        </mxCell>
        <mxCell id="jShqwbApxvPrVttutkd5-59" value="" style="html=1;points=[[0,0,0,0,5],[0,1,0,0,-5],[1,0,0,0,5],[1,1,0,0,-5]];perimeter=orthogonalPerimeter;outlineConnect=0;targetShapes=umlLifeline;portConstraint=eastwest;newEdgeStyle={&quot;curved&quot;:0,&quot;rounded&quot;:0};" vertex="1" parent="QDihuIbp6Lw-h8ZXW96g-6">
          <mxGeometry x="45" y="762" width="10" height="218" as="geometry" />
        </mxCell>
        <mxCell id="CObYJEAy56xA2G8EUnc1-1" value="S&amp;amp;C" style="shape=umlLifeline;perimeter=lifelinePerimeter;whiteSpace=wrap;html=1;container=1;dropTarget=0;collapsible=0;recursiveResize=0;outlineConnect=0;portConstraint=eastwest;newEdgeStyle={&quot;edgeStyle&quot;:&quot;elbowEdgeStyle&quot;,&quot;elbow&quot;:&quot;vertical&quot;,&quot;curved&quot;:0,&quot;rounded&quot;:0};" parent="1" vertex="1">
          <mxGeometry x="320" width="100" height="1000" as="geometry" />
        </mxCell>
        <mxCell id="hh9Ni2VgHgSeFQTvjpv2-1" value="" style="html=1;points=[[0,0,0,0,5],[0,1,0,0,-5],[1,0,0,0,5],[1,1,0,0,-5]];perimeter=orthogonalPerimeter;outlineConnect=0;targetShapes=umlLifeline;portConstraint=eastwest;newEdgeStyle={&quot;curved&quot;:0,&quot;rounded&quot;:0};" parent="CObYJEAy56xA2G8EUnc1-1" vertex="1">
          <mxGeometry x="45" y="74" width="10" height="96" as="geometry" />
        </mxCell>
        <mxCell id="jShqwbApxvPrVttutkd5-6" value="" style="html=1;points=[[0,0,0,0,5],[0,1,0,0,-5],[1,0,0,0,5],[1,1,0,0,-5]];perimeter=orthogonalPerimeter;outlineConnect=0;targetShapes=umlLifeline;portConstraint=eastwest;newEdgeStyle={&quot;curved&quot;:0,&quot;rounded&quot;:0};" vertex="1" parent="CObYJEAy56xA2G8EUnc1-1">
          <mxGeometry x="45" y="389" width="10" height="251" as="geometry" />
        </mxCell>
        <mxCell id="jShqwbApxvPrVttutkd5-58" value="" style="html=1;points=[[0,0,0,0,5],[0,1,0,0,-5],[1,0,0,0,5],[1,1,0,0,-5]];perimeter=orthogonalPerimeter;outlineConnect=0;targetShapes=umlLifeline;portConstraint=eastwest;newEdgeStyle={&quot;curved&quot;:0,&quot;rounded&quot;:0};" vertex="1" parent="CObYJEAy56xA2G8EUnc1-1">
          <mxGeometry x="45" y="740" width="10" height="240" as="geometry" />
        </mxCell>
        <mxCell id="CObYJEAy56xA2G8EUnc1-6" value="" style="shape=umlLifeline;perimeter=lifelinePerimeter;whiteSpace=wrap;html=1;container=1;dropTarget=0;collapsible=0;recursiveResize=0;outlineConnect=0;portConstraint=eastwest;newEdgeStyle={&quot;curved&quot;:0,&quot;rounded&quot;:0};participant=umlActor;" parent="1" vertex="1">
          <mxGeometry x="110" width="20" height="1000" as="geometry" />
        </mxCell>
        <mxCell id="CObYJEAy56xA2G8EUnc1-7" value="Company" style="text;html=1;align=center;verticalAlign=middle;resizable=0;points=[];autosize=1;strokeColor=none;fillColor=none;" parent="1" vertex="1">
          <mxGeometry x="160" y="10" width="80" height="30" as="geometry" />
        </mxCell>
        <mxCell id="CObYJEAy56xA2G8EUnc1-8" value="" style="edgeStyle=elbowEdgeStyle;fontSize=12;html=1;endArrow=blockThin;endFill=1;rounded=0;" parent="1" edge="1">
          <mxGeometry width="160" relative="1" as="geometry">
            <mxPoint x="120.10000000000002" y="74" as="sourcePoint" />
            <mxPoint x="369.5" y="74" as="targetPoint" />
            <Array as="points">
              <mxPoint x="270" y="74" />
            </Array>
          </mxGeometry>
        </mxCell>
        <mxCell id="CObYJEAy56xA2G8EUnc1-9" value="requestApplicationList(internship)" style="text;html=1;align=center;verticalAlign=middle;resizable=0;points=[];autosize=1;strokeColor=none;fillColor=none;" parent="1" vertex="1">
          <mxGeometry x="140" y="50" width="210" height="30" as="geometry" />
        </mxCell>
        <mxCell id="CObYJEAy56xA2G8EUnc1-15" value="&lt;b&gt;Interaction&lt;/b&gt; Application Acceptance or Rejection" style="shape=umlFrame;whiteSpace=wrap;html=1;pointerEvents=0;width=300;height=30;" parent="1" vertex="1">
          <mxGeometry x="60" y="-60" width="1090" height="1120" as="geometry" />
        </mxCell>
        <mxCell id="QDihuIbp6Lw-h8ZXW96g-1" value="API" style="shape=module;align=left;spacingLeft=20;align=center;verticalAlign=top;whiteSpace=wrap;html=1;" parent="1" vertex="1">
          <mxGeometry x="310" y="-10" width="110" height="50" as="geometry" />
        </mxCell>
        <mxCell id="QDihuIbp6Lw-h8ZXW96g-2" value=":Object" style="shape=umlLifeline;perimeter=lifelinePerimeter;whiteSpace=wrap;html=1;container=1;dropTarget=0;collapsible=0;recursiveResize=0;outlineConnect=0;portConstraint=eastwest;newEdgeStyle={&quot;curved&quot;:0,&quot;rounded&quot;:0};" parent="1" vertex="1">
          <mxGeometry x="550" width="100" height="1000" as="geometry" />
        </mxCell>
        <mxCell id="QDihuIbp6Lw-h8ZXW96g-15" value="" style="html=1;points=[[0,0,0,0,5],[0,1,0,0,-5],[1,0,0,0,5],[1,1,0,0,-5]];perimeter=orthogonalPerimeter;outlineConnect=0;targetShapes=umlLifeline;portConstraint=eastwest;newEdgeStyle={&quot;curved&quot;:0,&quot;rounded&quot;:0};" parent="QDihuIbp6Lw-h8ZXW96g-2" vertex="1">
          <mxGeometry x="45" y="80" width="10" height="820" as="geometry" />
        </mxCell>
        <mxCell id="QDihuIbp6Lw-h8ZXW96g-4" value="ProfileManager" style="shape=module;align=left;spacingLeft=20;align=center;verticalAlign=top;whiteSpace=wrap;html=1;" parent="1" vertex="1">
          <mxGeometry x="540" y="-10" width="110" height="50" as="geometry" />
        </mxCell>
        <mxCell id="QDihuIbp6Lw-h8ZXW96g-5" value="ApplicationManager" style="shape=module;align=left;spacingLeft=20;align=center;verticalAlign=top;whiteSpace=wrap;html=1;" parent="1" vertex="1">
          <mxGeometry x="750" y="-10" width="140" height="50" as="geometry" />
        </mxCell>
        <mxCell id="QDihuIbp6Lw-h8ZXW96g-8" value=":Object" style="shape=umlLifeline;perimeter=lifelinePerimeter;whiteSpace=wrap;html=1;container=1;dropTarget=0;collapsible=0;recursiveResize=0;outlineConnect=0;portConstraint=eastwest;newEdgeStyle={&quot;curved&quot;:0,&quot;rounded&quot;:0};" parent="1" vertex="1">
          <mxGeometry x="1010" y="-10" width="100" height="1010" as="geometry" />
        </mxCell>
        <mxCell id="QDihuIbp6Lw-h8ZXW96g-33" value="" style="html=1;points=[[0,0,0,0,5],[0,1,0,0,-5],[1,0,0,0,5],[1,1,0,0,-5]];perimeter=orthogonalPerimeter;outlineConnect=0;targetShapes=umlLifeline;portConstraint=eastwest;newEdgeStyle={&quot;curved&quot;:0,&quot;rounded&quot;:0};" parent="QDihuIbp6Lw-h8ZXW96g-8" vertex="1">
          <mxGeometry x="45" y="100" width="10" height="40" as="geometry" />
        </mxCell>
        <mxCell id="SL6PgUiu9ieBlHFa4yMH-6" value="" style="html=1;points=[[0,0,0,0,5],[0,1,0,0,-5],[1,0,0,0,5],[1,1,0,0,-5]];perimeter=orthogonalPerimeter;outlineConnect=0;targetShapes=umlLifeline;portConstraint=eastwest;newEdgeStyle={&quot;curved&quot;:0,&quot;rounded&quot;:0};" parent="QDihuIbp6Lw-h8ZXW96g-8" vertex="1">
          <mxGeometry x="45" y="252" width="10" height="40" as="geometry" />
        </mxCell>
        <mxCell id="QDihuIbp6Lw-h8ZXW96g-11" value="Database" style="shape=module;align=left;spacingLeft=20;align=center;verticalAlign=top;whiteSpace=wrap;html=1;" parent="1" vertex="1">
          <mxGeometry x="1000" y="-10" width="110" height="50" as="geometry" />
        </mxCell>
        <mxCell id="QDihuIbp6Lw-h8ZXW96g-13" value="requestApplicationList(internship)" style="text;html=1;align=center;verticalAlign=middle;resizable=0;points=[];autosize=1;strokeColor=none;fillColor=none;" parent="1" vertex="1">
          <mxGeometry x="382" y="55" width="210" height="30" as="geometry" />
        </mxCell>
        <mxCell id="QDihuIbp6Lw-h8ZXW96g-14" value="ApplicationListPage" style="html=1;verticalAlign=bottom;endArrow=open;dashed=1;endSize=8;curved=0;rounded=0;" parent="1" target="hh9Ni2VgHgSeFQTvjpv2-1" edge="1" source="QDihuIbp6Lw-h8ZXW96g-15">
          <mxGeometry x="-0.0023" relative="1" as="geometry">
            <mxPoint x="599" y="150" as="sourcePoint" />
            <mxPoint x="369" y="150" as="targetPoint" />
            <Array as="points">
              <mxPoint x="505" y="150" />
            </Array>
            <mxPoint as="offset" />
          </mxGeometry>
        </mxCell>
        <mxCell id="QDihuIbp6Lw-h8ZXW96g-16" value="getApplicationList(internship)" style="text;html=1;align=center;verticalAlign=middle;resizable=0;points=[];autosize=1;strokeColor=none;fillColor=none;" parent="1" vertex="1">
          <mxGeometry x="742" y="66" width="180" height="30" as="geometry" />
        </mxCell>
        <mxCell id="QDihuIbp6Lw-h8ZXW96g-21" value="redirectToApplicationListPage(internship)" style="html=1;verticalAlign=bottom;endArrow=open;dashed=1;endSize=8;curved=0;rounded=0;" parent="1" target="CObYJEAy56xA2G8EUnc1-6" edge="1">
          <mxGeometry relative="1" as="geometry">
            <mxPoint x="370" y="170" as="sourcePoint" />
            <mxPoint x="140" y="170" as="targetPoint" />
            <Array as="points" />
          </mxGeometry>
        </mxCell>
        <mxCell id="QDihuIbp6Lw-h8ZXW96g-23" value="requestApplicationPage(application)" style="text;html=1;align=center;verticalAlign=middle;resizable=0;points=[];autosize=1;strokeColor=none;fillColor=none;" parent="1" vertex="1">
          <mxGeometry x="490" y="207" width="220" height="30" as="geometry" />
        </mxCell>
        <mxCell id="QDihuIbp6Lw-h8ZXW96g-24" value="ApplicationList" style="html=1;verticalAlign=bottom;endArrow=open;dashed=1;endSize=8;curved=0;rounded=0;" parent="1" edge="1">
          <mxGeometry x="-0.0005" relative="1" as="geometry">
            <mxPoint x="1059.25" y="129.97000000000003" as="sourcePoint" />
            <mxPoint x="604.75" y="129.97000000000003" as="targetPoint" />
            <Array as="points">
              <mxPoint x="735.75" y="129.97" />
            </Array>
            <mxPoint as="offset" />
          </mxGeometry>
        </mxCell>
        <mxCell id="QDihuIbp6Lw-h8ZXW96g-25" value="getApplicationDetails(application)" style="text;html=1;align=center;verticalAlign=middle;resizable=0;points=[];autosize=1;strokeColor=none;fillColor=none;" parent="1" vertex="1">
          <mxGeometry x="839" y="217" width="210" height="30" as="geometry" />
        </mxCell>
        <mxCell id="QDihuIbp6Lw-h8ZXW96g-27" value="" style="edgeStyle=elbowEdgeStyle;fontSize=12;html=1;endArrow=blockThin;endFill=1;rounded=0;" parent="1" target="SL6PgUiu9ieBlHFa4yMH-6" edge="1">
          <mxGeometry width="160" relative="1" as="geometry">
            <mxPoint x="835" y="242" as="sourcePoint" />
            <mxPoint x="1055" y="242" as="targetPoint" />
            <Array as="points">
              <mxPoint x="960" y="242" />
            </Array>
          </mxGeometry>
        </mxCell>
        <mxCell id="QDihuIbp6Lw-h8ZXW96g-28" value="" style="html=1;points=[[0,0,0,0,5],[0,1,0,0,-5],[1,0,0,0,5],[1,1,0,0,-5]];perimeter=orthogonalPerimeter;outlineConnect=0;targetShapes=umlLifeline;portConstraint=eastwest;newEdgeStyle={&quot;curved&quot;:0,&quot;rounded&quot;:0};" parent="1" vertex="1">
          <mxGeometry x="825" y="230" width="10" height="60" as="geometry" />
        </mxCell>
        <mxCell id="QDihuIbp6Lw-h8ZXW96g-29" value="applicationDetails" style="html=1;verticalAlign=bottom;endArrow=open;dashed=1;endSize=8;curved=0;rounded=0;" parent="1" target="QDihuIbp6Lw-h8ZXW96g-28" edge="1">
          <mxGeometry relative="1" as="geometry">
            <mxPoint x="1060" y="282.05" as="sourcePoint" />
            <mxPoint x="835" y="282.05" as="targetPoint" />
            <Array as="points">
              <mxPoint x="971" y="281" />
            </Array>
          </mxGeometry>
        </mxCell>
        <mxCell id="QDihuIbp6Lw-h8ZXW96g-30" value="" style="html=1;points=[[0,0,0,0,5],[0,1,0,0,-5],[1,0,0,0,5],[1,1,0,0,-5]];perimeter=orthogonalPerimeter;outlineConnect=0;targetShapes=umlLifeline;portConstraint=eastwest;newEdgeStyle={&quot;curved&quot;:0,&quot;rounded&quot;:0};" parent="1" vertex="1">
          <mxGeometry x="365" y="222" width="10" height="88" as="geometry" />
        </mxCell>
        <mxCell id="QDihuIbp6Lw-h8ZXW96g-32" value="ApplicationDetailsPage" style="html=1;verticalAlign=bottom;endArrow=open;dashed=1;endSize=8;curved=0;rounded=0;" parent="1" edge="1">
          <mxGeometry x="0.0011" relative="1" as="geometry">
            <mxPoint x="825" y="290" as="sourcePoint" />
            <mxPoint x="375.0000000000001" y="290" as="targetPoint" />
            <Array as="points">
              <mxPoint x="800" y="290" />
            </Array>
            <mxPoint as="offset" />
          </mxGeometry>
        </mxCell>
        <mxCell id="QDihuIbp6Lw-h8ZXW96g-3" value="" style="edgeStyle=elbowEdgeStyle;fontSize=12;html=1;endArrow=blockThin;endFill=1;rounded=0;" parent="1" source="hh9Ni2VgHgSeFQTvjpv2-1" edge="1">
          <mxGeometry width="160" relative="1" as="geometry">
            <mxPoint x="370" y="80" as="sourcePoint" />
            <mxPoint x="599.5" y="80" as="targetPoint" />
            <Array as="points">
              <mxPoint x="495" y="80" />
            </Array>
          </mxGeometry>
        </mxCell>
        <mxCell id="QDihuIbp6Lw-h8ZXW96g-7" value="" style="edgeStyle=elbowEdgeStyle;fontSize=12;html=1;endArrow=blockThin;endFill=1;rounded=0;elbow=vertical;" parent="1" source="QDihuIbp6Lw-h8ZXW96g-15" target="QDihuIbp6Lw-h8ZXW96g-8" edge="1">
          <mxGeometry x="-0.0435" y="30" width="160" relative="1" as="geometry">
            <mxPoint x="600" y="90" as="sourcePoint" />
            <mxPoint x="830" y="90" as="targetPoint" />
            <Array as="points">
              <mxPoint x="725" y="90" />
            </Array>
            <mxPoint as="offset" />
          </mxGeometry>
        </mxCell>
        <mxCell id="QDihuIbp6Lw-h8ZXW96g-17" value="requestApplicationPage(application)" style="text;html=1;align=center;verticalAlign=middle;resizable=0;points=[];autosize=1;strokeColor=none;fillColor=none;" parent="1" vertex="1">
          <mxGeometry x="135" y="198" width="220" height="30" as="geometry" />
        </mxCell>
        <mxCell id="QDihuIbp6Lw-h8ZXW96g-20" value="" style="edgeStyle=elbowEdgeStyle;fontSize=12;html=1;endArrow=blockThin;endFill=1;rounded=0;" parent="1" source="CObYJEAy56xA2G8EUnc1-6" target="QDihuIbp6Lw-h8ZXW96g-30" edge="1">
          <mxGeometry width="160" relative="1" as="geometry">
            <mxPoint x="144.25" y="222" as="sourcePoint" />
            <mxPoint x="370" y="222" as="targetPoint" />
            <Array as="points">
              <mxPoint x="270.25" y="222" />
            </Array>
          </mxGeometry>
        </mxCell>
        <mxCell id="QDihuIbp6Lw-h8ZXW96g-22" value="" style="edgeStyle=elbowEdgeStyle;fontSize=12;html=1;endArrow=blockThin;endFill=1;rounded=0;" parent="1" edge="1">
          <mxGeometry width="160" relative="1" as="geometry">
            <mxPoint x="375" y="230" as="sourcePoint" />
            <mxPoint x="829.5" y="230" as="targetPoint" />
            <Array as="points">
              <mxPoint x="496" y="230" />
            </Array>
          </mxGeometry>
        </mxCell>
        <mxCell id="N4ezWAQjIMXn5G-POvpN-3" value="redirectToApplicationPage(application)" style="html=1;verticalAlign=bottom;endArrow=open;dashed=1;endSize=8;curved=0;rounded=0;" parent="1" source="QDihuIbp6Lw-h8ZXW96g-30" target="CObYJEAy56xA2G8EUnc1-6" edge="1">
          <mxGeometry x="0.0001" relative="1" as="geometry">
            <mxPoint x="365.00000000000006" y="310" as="sourcePoint" />
            <mxPoint x="139.30999999999997" y="310" as="targetPoint" />
            <Array as="points">
              <mxPoint x="275.50000000000006" y="310" />
            </Array>
            <mxPoint as="offset" />
          </mxGeometry>
        </mxCell>
        <mxCell id="jShqwbApxvPrVttutkd5-1" value="alternative" style="shape=umlFrame;whiteSpace=wrap;html=1;pointerEvents=0;width=78;height=30;" vertex="1" parent="1">
          <mxGeometry x="82" y="340" width="1038" height="700" as="geometry" />
        </mxCell>
        <mxCell id="jShqwbApxvPrVttutkd5-16" value="" style="html=1;points=[[0,0,0,0,5],[0,1,0,0,-5],[1,0,0,0,5],[1,1,0,0,-5]];perimeter=orthogonalPerimeter;outlineConnect=0;targetShapes=umlLifeline;portConstraint=eastwest;newEdgeStyle={&quot;curved&quot;:0,&quot;rounded&quot;:0};" vertex="1" parent="1">
          <mxGeometry x="1055" y="412" width="10" height="208" as="geometry" />
        </mxCell>
        <mxCell id="jShqwbApxvPrVttutkd5-17" value="" style="edgeStyle=elbowEdgeStyle;fontSize=12;html=1;endArrow=blockThin;endFill=1;rounded=0;" edge="1" parent="1">
          <mxGeometry width="160" relative="1" as="geometry">
            <mxPoint x="835" y="412" as="sourcePoint" />
            <mxPoint x="1055" y="412" as="targetPoint" />
            <Array as="points">
              <mxPoint x="960" y="412" />
            </Array>
          </mxGeometry>
        </mxCell>
        <mxCell id="jShqwbApxvPrVttutkd5-18" value="&lt;div&gt;acceptApplication(application)&lt;/div&gt;" style="text;html=1;align=center;verticalAlign=middle;resizable=1;points=[];autosize=1;strokeColor=none;fillColor=none;movable=1;rotatable=1;deletable=1;editable=1;locked=0;connectable=1;" vertex="1" parent="1">
          <mxGeometry x="849" y="387" width="196.73" height="30" as="geometry" />
        </mxCell>
        <mxCell id="jShqwbApxvPrVttutkd5-19" value="writeToDb(acceptedApplication)" style="html=1;align=left;spacingLeft=2;endArrow=block;rounded=0;edgeStyle=orthogonalEdgeStyle;curved=0;rounded=0;" edge="1" parent="1">
          <mxGeometry x="-1" y="-65" relative="1" as="geometry">
            <mxPoint x="1065" y="430" as="sourcePoint" />
            <Array as="points">
              <mxPoint x="1090" y="430" />
              <mxPoint x="1090" y="460" />
            </Array>
            <mxPoint x="1070" y="460" as="targetPoint" />
            <mxPoint x="-65" y="-57" as="offset" />
          </mxGeometry>
        </mxCell>
        <mxCell id="jShqwbApxvPrVttutkd5-20" value="" style="html=1;points=[[0,0,0,0,5],[0,1,0,0,-5],[1,0,0,0,5],[1,1,0,0,-5]];perimeter=orthogonalPerimeter;outlineConnect=0;targetShapes=umlLifeline;portConstraint=eastwest;newEdgeStyle={&quot;curved&quot;:0,&quot;rounded&quot;:0};" vertex="1" parent="1">
          <mxGeometry x="1060" y="449" width="10" height="21" as="geometry" />
        </mxCell>
        <mxCell id="jShqwbApxvPrVttutkd5-30" value="" style="endArrow=none;dashed=1;html=1;rounded=0;exitX=0;exitY=0.587;exitDx=0;exitDy=0;exitPerimeter=0;entryX=1;entryY=0.587;entryDx=0;entryDy=0;entryPerimeter=0;" edge="1" parent="1">
          <mxGeometry width="50" height="50" relative="1" as="geometry">
            <mxPoint x="82" y="714.5100000000002" as="sourcePoint" />
            <mxPoint x="1120" y="714.5100000000002" as="targetPoint" />
          </mxGeometry>
        </mxCell>
        <mxCell id="jShqwbApxvPrVttutkd5-32" value="" style="group" vertex="1" connectable="0" parent="1">
          <mxGeometry x="120" y="363" width="663.0612244897959" height="42" as="geometry" />
        </mxCell>
        <mxCell id="jShqwbApxvPrVttutkd5-8" value="" style="edgeStyle=elbowEdgeStyle;fontSize=12;html=1;endArrow=blockThin;endFill=1;rounded=0;movable=1;resizable=1;rotatable=1;deletable=1;editable=1;locked=0;connectable=1;" edge="1" parent="jShqwbApxvPrVttutkd5-32" source="jShqwbApxvPrVttutkd5-6" target="jShqwbApxvPrVttutkd5-10">
          <mxGeometry width="160" relative="1" as="geometry">
            <mxPoint x="250" y="38" as="sourcePoint" />
            <mxPoint x="710" y="38" as="targetPoint" />
            <Array as="points">
              <mxPoint x="532.1020408163265" y="38" />
            </Array>
          </mxGeometry>
        </mxCell>
        <mxCell id="jShqwbApxvPrVttutkd5-9" value="&lt;div&gt;acceptApplication(application)&lt;/div&gt;" style="text;html=1;align=center;verticalAlign=middle;resizable=1;points=[];autosize=1;strokeColor=none;fillColor=none;movable=1;rotatable=1;deletable=1;editable=1;locked=0;connectable=1;" vertex="1" parent="jShqwbApxvPrVttutkd5-32">
          <mxGeometry x="306.3265306122449" y="12" width="356.734693877551" height="30" as="geometry" />
        </mxCell>
        <mxCell id="jShqwbApxvPrVttutkd5-31" value="" style="group" vertex="1" connectable="0" parent="jShqwbApxvPrVttutkd5-32">
          <mxGeometry width="215.51020408163265" height="30" as="geometry" />
        </mxCell>
        <mxCell id="jShqwbApxvPrVttutkd5-2" value="" style="edgeStyle=elbowEdgeStyle;fontSize=12;html=1;endArrow=blockThin;endFill=1;rounded=0;movable=1;resizable=1;rotatable=1;deletable=1;editable=1;locked=0;connectable=1;" edge="1" parent="jShqwbApxvPrVttutkd5-31" target="jShqwbApxvPrVttutkd5-6">
          <mxGeometry width="160" relative="1" as="geometry">
            <mxPoint y="26" as="sourcePoint" />
            <mxPoint x="240" y="26" as="targetPoint" />
            <Array as="points">
              <mxPoint x="147.1836734693877" y="26" />
            </Array>
          </mxGeometry>
        </mxCell>
        <mxCell id="jShqwbApxvPrVttutkd5-3" value="&lt;div&gt;acceptApplication(application)&lt;/div&gt;" style="text;html=1;align=center;verticalAlign=middle;resizable=1;points=[];autosize=1;strokeColor=none;fillColor=none;movable=1;rotatable=1;deletable=1;editable=1;locked=0;connectable=1;" vertex="1" parent="jShqwbApxvPrVttutkd5-31">
          <mxGeometry x="29.387755102040813" width="186.12244897959184" height="30" as="geometry" />
        </mxCell>
        <mxCell id="jShqwbApxvPrVttutkd5-34" value="" style="group" vertex="1" connectable="0" parent="1">
          <mxGeometry x="100" y="490" width="1000" height="200" as="geometry" />
        </mxCell>
        <mxCell id="jShqwbApxvPrVttutkd5-13" value="alternative" style="shape=umlFrame;whiteSpace=wrap;html=1;pointerEvents=0;width=80;height=30;" vertex="1" parent="jShqwbApxvPrVttutkd5-34">
          <mxGeometry width="1000" height="200" as="geometry" />
        </mxCell>
        <mxCell id="jShqwbApxvPrVttutkd5-14" value="if writeToDb(acceptedApplication)" style="text;html=1;align=center;verticalAlign=middle;resizable=0;points=[];autosize=1;strokeColor=none;fillColor=none;" vertex="1" parent="jShqwbApxvPrVttutkd5-34">
          <mxGeometry x="13" y="27" width="210" height="30" as="geometry" />
        </mxCell>
        <mxCell id="jShqwbApxvPrVttutkd5-21" value="ok" style="html=1;verticalAlign=bottom;endArrow=open;dashed=1;endSize=8;curved=0;rounded=0;" edge="1" parent="jShqwbApxvPrVttutkd5-34">
          <mxGeometry x="-0.0028" relative="1" as="geometry">
            <mxPoint x="955" y="41" as="sourcePoint" />
            <mxPoint x="735" y="41" as="targetPoint" />
            <mxPoint as="offset" />
          </mxGeometry>
        </mxCell>
        <mxCell id="jShqwbApxvPrVttutkd5-22" value="ApplicationListPage" style="html=1;verticalAlign=bottom;endArrow=open;dashed=1;endSize=8;curved=0;rounded=0;" edge="1" parent="jShqwbApxvPrVttutkd5-34">
          <mxGeometry x="-0.0028" relative="1" as="geometry">
            <mxPoint x="724.9999999999998" y="53.5" as="sourcePoint" />
            <mxPoint x="505" y="53.5" as="targetPoint" />
            <mxPoint as="offset" />
          </mxGeometry>
        </mxCell>
        <mxCell id="jShqwbApxvPrVttutkd5-23" value="redirectToApplicationListPage(internship)" style="html=1;verticalAlign=bottom;endArrow=open;dashed=1;endSize=8;curved=0;rounded=0;" edge="1" parent="jShqwbApxvPrVttutkd5-34">
          <mxGeometry relative="1" as="geometry">
            <mxPoint x="265" y="81" as="sourcePoint" />
            <mxPoint x="20" y="81" as="targetPoint" />
            <Array as="points" />
          </mxGeometry>
        </mxCell>
        <mxCell id="jShqwbApxvPrVttutkd5-24" value="" style="endArrow=none;dashed=1;html=1;rounded=0;exitX=0;exitY=0.5;exitDx=0;exitDy=0;exitPerimeter=0;entryX=0.999;entryY=0.498;entryDx=0;entryDy=0;entryPerimeter=0;" edge="1" parent="jShqwbApxvPrVttutkd5-34" source="jShqwbApxvPrVttutkd5-13" target="jShqwbApxvPrVttutkd5-13">
          <mxGeometry width="50" height="50" relative="1" as="geometry">
            <mxPoint x="29.999999999999943" y="120" as="sourcePoint" />
            <mxPoint x="799.23" y="120.15999999999985" as="targetPoint" />
          </mxGeometry>
        </mxCell>
        <mxCell id="jShqwbApxvPrVttutkd5-25" value="else" style="text;html=1;align=center;verticalAlign=middle;resizable=0;points=[];autosize=1;strokeColor=none;fillColor=none;" vertex="1" parent="jShqwbApxvPrVttutkd5-34">
          <mxGeometry x="11" y="98" width="50" height="30" as="geometry" />
        </mxCell>
        <mxCell id="jShqwbApxvPrVttutkd5-26" value="error" style="html=1;verticalAlign=bottom;endArrow=open;dashed=1;endSize=8;curved=0;rounded=0;" edge="1" parent="jShqwbApxvPrVttutkd5-34">
          <mxGeometry x="-0.0028" relative="1" as="geometry">
            <mxPoint x="955" y="130" as="sourcePoint" />
            <mxPoint x="735" y="130" as="targetPoint" />
            <mxPoint as="offset" />
          </mxGeometry>
        </mxCell>
        <mxCell id="jShqwbApxvPrVttutkd5-27" value="ApplicationDetailsPage" style="html=1;verticalAlign=bottom;endArrow=open;dashed=1;endSize=8;curved=0;rounded=0;" edge="1" parent="jShqwbApxvPrVttutkd5-34">
          <mxGeometry x="-0.0028" relative="1" as="geometry">
            <mxPoint x="724.9999999999998" y="140" as="sourcePoint" />
            <mxPoint x="275" y="140" as="targetPoint" />
            <mxPoint as="offset" />
          </mxGeometry>
        </mxCell>
        <mxCell id="jShqwbApxvPrVttutkd5-28" value="redirectToApplicationDetailsPage(application)" style="html=1;verticalAlign=bottom;endArrow=open;dashed=1;endSize=8;curved=0;rounded=0;" edge="1" parent="jShqwbApxvPrVttutkd5-34">
          <mxGeometry relative="1" as="geometry">
            <mxPoint x="265" y="149.76" as="sourcePoint" />
            <mxPoint x="20" y="149.76" as="targetPoint" />
            <Array as="points" />
          </mxGeometry>
        </mxCell>
        <mxCell id="jShqwbApxvPrVttutkd5-29" value="ApplicationListPage" style="html=1;verticalAlign=bottom;endArrow=open;dashed=1;endSize=8;curved=0;rounded=0;" edge="1" parent="jShqwbApxvPrVttutkd5-34">
          <mxGeometry x="-0.0028" relative="1" as="geometry">
            <mxPoint x="494.9999999999998" y="70.5" as="sourcePoint" />
            <mxPoint x="275" y="70" as="targetPoint" />
            <mxPoint as="offset" />
          </mxGeometry>
        </mxCell>
        <mxCell id="jShqwbApxvPrVttutkd5-47" value="" style="html=1;points=[[0,0,0,0,5],[0,1,0,0,-5],[1,0,0,0,5],[1,1,0,0,-5]];perimeter=orthogonalPerimeter;outlineConnect=0;targetShapes=umlLifeline;portConstraint=eastwest;newEdgeStyle={&quot;curved&quot;:0,&quot;rounded&quot;:0};" vertex="1" parent="1">
          <mxGeometry x="1055" y="762" width="10" height="198" as="geometry" />
        </mxCell>
        <mxCell id="jShqwbApxvPrVttutkd5-48" value="&lt;div&gt;rejectApplication(application)&lt;/div&gt;" style="text;html=1;align=center;verticalAlign=middle;resizable=1;points=[];autosize=1;strokeColor=none;fillColor=none;movable=1;rotatable=1;deletable=1;editable=1;locked=0;connectable=1;" vertex="1" parent="1">
          <mxGeometry x="860.27" y="737" width="180" height="30" as="geometry" />
        </mxCell>
        <mxCell id="jShqwbApxvPrVttutkd5-49" value="writeToDb(rejectedApplication)" style="html=1;align=left;spacingLeft=2;endArrow=block;rounded=0;edgeStyle=orthogonalEdgeStyle;curved=0;rounded=0;" edge="1" parent="1">
          <mxGeometry x="-1" y="-65" relative="1" as="geometry">
            <mxPoint x="1063" y="771" as="sourcePoint" />
            <Array as="points">
              <mxPoint x="1088" y="771" />
              <mxPoint x="1088" y="801" />
            </Array>
            <mxPoint x="1068" y="801" as="targetPoint" />
            <mxPoint x="-65" y="-57" as="offset" />
          </mxGeometry>
        </mxCell>
        <mxCell id="jShqwbApxvPrVttutkd5-50" value="" style="html=1;points=[[0,0,0,0,5],[0,1,0,0,-5],[1,0,0,0,5],[1,1,0,0,-5]];perimeter=orthogonalPerimeter;outlineConnect=0;targetShapes=umlLifeline;portConstraint=eastwest;newEdgeStyle={&quot;curved&quot;:0,&quot;rounded&quot;:0};" vertex="1" parent="1">
          <mxGeometry x="1058" y="792" width="10" height="21" as="geometry" />
        </mxCell>
        <mxCell id="jShqwbApxvPrVttutkd5-53" value="" style="edgeStyle=elbowEdgeStyle;fontSize=12;html=1;endArrow=blockThin;endFill=1;rounded=0;movable=1;resizable=1;rotatable=1;deletable=1;editable=1;locked=0;connectable=1;" edge="1" parent="1">
          <mxGeometry width="160" relative="1" as="geometry">
            <mxPoint x="375" y="752" as="sourcePoint" />
            <mxPoint x="825" y="752" as="targetPoint" />
            <Array as="points">
              <mxPoint x="650.1020408163265" y="752" />
            </Array>
          </mxGeometry>
        </mxCell>
        <mxCell id="jShqwbApxvPrVttutkd5-54" value="&lt;div&gt;rejectApplication(application)&lt;/div&gt;" style="text;html=1;align=center;verticalAlign=middle;resizable=1;points=[];autosize=1;strokeColor=none;fillColor=none;movable=1;rotatable=1;deletable=1;editable=1;locked=0;connectable=1;" vertex="1" parent="1">
          <mxGeometry x="512.3265306122448" y="727" width="180" height="30" as="geometry" />
        </mxCell>
        <mxCell id="jShqwbApxvPrVttutkd5-55" value="" style="group" vertex="1" connectable="0" parent="1">
          <mxGeometry x="118" y="716" width="215.51020408163265" height="30" as="geometry" />
        </mxCell>
        <mxCell id="jShqwbApxvPrVttutkd5-57" value="&lt;div&gt;rejectApplication(application)&lt;/div&gt;" style="text;html=1;align=center;verticalAlign=middle;resizable=1;points=[];autosize=1;strokeColor=none;fillColor=none;movable=1;rotatable=1;deletable=1;editable=1;locked=0;connectable=1;" vertex="1" parent="jShqwbApxvPrVttutkd5-55">
          <mxGeometry x="32.38775510204081" width="180" height="30" as="geometry" />
        </mxCell>
        <mxCell id="jShqwbApxvPrVttutkd5-56" value="" style="edgeStyle=elbowEdgeStyle;fontSize=12;html=1;endArrow=blockThin;endFill=1;rounded=0;movable=1;resizable=1;rotatable=1;deletable=1;editable=1;locked=0;connectable=1;" edge="1" parent="1">
          <mxGeometry width="160" relative="1" as="geometry">
            <mxPoint x="120.16666666666663" y="740" as="sourcePoint" />
            <mxPoint x="365" y="740" as="targetPoint" />
            <Array as="points">
              <mxPoint x="265.1836734693877" y="740" />
            </Array>
          </mxGeometry>
        </mxCell>
        <mxCell id="jShqwbApxvPrVttutkd5-60" value="" style="edgeStyle=elbowEdgeStyle;fontSize=12;html=1;endArrow=blockThin;endFill=1;rounded=0;" edge="1" parent="1" target="jShqwbApxvPrVttutkd5-47">
          <mxGeometry width="160" relative="1" as="geometry">
            <mxPoint x="835" y="762" as="sourcePoint" />
            <mxPoint x="1053" y="762" as="targetPoint" />
            <Array as="points">
              <mxPoint x="959" y="762" />
            </Array>
          </mxGeometry>
        </mxCell>
        <mxCell id="jShqwbApxvPrVttutkd5-36" value="alternative" style="shape=umlFrame;whiteSpace=wrap;html=1;pointerEvents=0;width=80;height=30;" vertex="1" parent="1">
          <mxGeometry x="100" y="830" width="1000" height="190" as="geometry" />
        </mxCell>
        <mxCell id="jShqwbApxvPrVttutkd5-37" value="if writeToDb(rejectedApplication)" style="text;html=1;align=center;verticalAlign=middle;resizable=0;points=[];autosize=1;strokeColor=none;fillColor=none;" vertex="1" parent="1">
          <mxGeometry x="118" y="857" width="200" height="30" as="geometry" />
        </mxCell>
        <mxCell id="jShqwbApxvPrVttutkd5-38" value="ok" style="html=1;verticalAlign=bottom;endArrow=open;dashed=1;endSize=8;curved=0;rounded=0;" edge="1" parent="1">
          <mxGeometry x="-0.0028" relative="1" as="geometry">
            <mxPoint x="1055" y="871" as="sourcePoint" />
            <mxPoint x="835" y="871" as="targetPoint" />
            <mxPoint as="offset" />
          </mxGeometry>
        </mxCell>
        <mxCell id="jShqwbApxvPrVttutkd5-39" value="ApplicationListPage" style="html=1;verticalAlign=bottom;endArrow=open;dashed=1;endSize=8;curved=0;rounded=0;" edge="1" parent="1">
          <mxGeometry x="-0.0028" relative="1" as="geometry">
            <mxPoint x="824.9999999999998" y="883.5" as="sourcePoint" />
            <mxPoint x="605" y="883.5" as="targetPoint" />
            <mxPoint as="offset" />
          </mxGeometry>
        </mxCell>
        <mxCell id="jShqwbApxvPrVttutkd5-40" value="redirectToApplicationListPage(internship)" style="html=1;verticalAlign=bottom;endArrow=open;dashed=1;endSize=8;curved=0;rounded=0;" edge="1" parent="1">
          <mxGeometry relative="1" as="geometry">
            <mxPoint x="365" y="911" as="sourcePoint" />
            <mxPoint x="120" y="911" as="targetPoint" />
            <Array as="points" />
          </mxGeometry>
        </mxCell>
        <mxCell id="jShqwbApxvPrVttutkd5-41" value="" style="endArrow=none;dashed=1;html=1;rounded=0;exitX=0;exitY=0.5;exitDx=0;exitDy=0;exitPerimeter=0;entryX=0.999;entryY=0.498;entryDx=0;entryDy=0;entryPerimeter=0;" edge="1" parent="1">
          <mxGeometry width="50" height="50" relative="1" as="geometry">
            <mxPoint x="100" y="929" as="sourcePoint" />
            <mxPoint x="1099" y="928.6199999999999" as="targetPoint" />
          </mxGeometry>
        </mxCell>
        <mxCell id="jShqwbApxvPrVttutkd5-42" value="else" style="text;html=1;align=center;verticalAlign=middle;resizable=0;points=[];autosize=1;strokeColor=none;fillColor=none;" vertex="1" parent="1">
          <mxGeometry x="111" y="928" width="50" height="30" as="geometry" />
        </mxCell>
        <mxCell id="jShqwbApxvPrVttutkd5-43" value="error" style="html=1;verticalAlign=bottom;endArrow=open;dashed=1;endSize=8;curved=0;rounded=0;" edge="1" parent="1">
          <mxGeometry x="-0.0028" relative="1" as="geometry">
            <mxPoint x="1055" y="960" as="sourcePoint" />
            <mxPoint x="835" y="960" as="targetPoint" />
            <mxPoint as="offset" />
          </mxGeometry>
        </mxCell>
        <mxCell id="jShqwbApxvPrVttutkd5-44" value="ApplicationDetailsPage" style="html=1;verticalAlign=bottom;endArrow=open;dashed=1;endSize=8;curved=0;rounded=0;" edge="1" parent="1">
          <mxGeometry x="-0.0028" relative="1" as="geometry">
            <mxPoint x="824.9999999999998" y="970" as="sourcePoint" />
            <mxPoint x="375" y="970" as="targetPoint" />
            <mxPoint as="offset" />
          </mxGeometry>
        </mxCell>
        <mxCell id="jShqwbApxvPrVttutkd5-45" value="redirectToApplicationDetailsPage(application)" style="html=1;verticalAlign=bottom;endArrow=open;dashed=1;endSize=8;curved=0;rounded=0;" edge="1" parent="1">
          <mxGeometry relative="1" as="geometry">
            <mxPoint x="365" y="979.76" as="sourcePoint" />
            <mxPoint x="120" y="979.76" as="targetPoint" />
            <Array as="points" />
          </mxGeometry>
        </mxCell>
        <mxCell id="jShqwbApxvPrVttutkd5-46" value="ApplicationListPage" style="html=1;verticalAlign=bottom;endArrow=open;dashed=1;endSize=8;curved=0;rounded=0;" edge="1" parent="1">
          <mxGeometry x="-0.0028" relative="1" as="geometry">
            <mxPoint x="594.9999999999998" y="900.5" as="sourcePoint" />
            <mxPoint x="375" y="900" as="targetPoint" />
            <mxPoint as="offset" />
          </mxGeometry>
        </mxCell>
      </root>
    </mxGraphModel>
  </diagram>
</mxfile>
